<svg fill="none"
    height="57"
    viewBox="0 0 120 57"
    width="120"
    xmlns="http://www.w3.org/2000/svg">
    <circle
        cx="1.5"
        cy="1.5"
        fill="#BBE7F0"
        r="1.5" />
    <circle
        cx="14.5"
        cy="1.5"
        fill="#BBE7F0"
        r="1.5" />
    <circle
        cx="27.5"
        cy="1.5"
        fill="#BBE7F0"
        r="1.5" />
    <circle
        cx="1.5"
        cy="10.5"
        fill="#BBE7F0"
        r="1.5" />
    <circle
        cx="14.5"
        cy="10.5"
        fill="#BBE7F0"
        r="1.5" />
    <circle
        cx="27.5"
        cy="10.5"
        fill="#BBE7F0"
        r="1.5" />
    <circle
        cx="1.5"
        cy="19.5"
        fill="#BBE7F0"
        r="1.5" />
    <circle
        cx="14.5"
        cy="19.5"
        fill="#BBE7F0"
        r="1.5" />
    <circle
        cx="27.5"
        cy="19.5"
        fill="#BBE7F0"
        r="1.5" />
    <circle
        cx="40.5"
        cy="19.5"
        fill="#BBE7F0"
        r="1.5" />
    <circle
        cx="1.5"
        cy="28.5"
        fill="#BBE7F0"
        r="1.5" />
    <circle
        cx="14.5"
        cy="28.5"
        fill="#BBE7F0"
        r="1.5" />
    <circle
        cx="27.5"
        cy="28.5"
        fill="#BBE7F0"
        r="1.5" />
    <circle
        cx="40.5"
        cy="28.5"
        fill="#BBE7F0"
        r="1.5" />
    <circle
        cx="1.5"
        cy="37.5"
        fill="#BBE7F0"
        r="1.5" />
    <circle
        cx="14.5"
        cy="37.5"
        fill="#BBE7F0"
        r="1.5" />
    <circle
        cx="27.5"
        cy="37.5"
        fill="#BBE7F0"
        r="1.5" />
    <circle
        cx="40.5"
        cy="37.5"
        fill="#BBE7F0"
        r="1.5" />
    <circle
        cx="53.5"
        cy="37.5"
        fill="#BBE7F0"
        r="1.5" />
    <circle
        cx="66.5"
        cy="37.5"
        fill="#BBE7F0"
        r="1.5" />
    <circle
        cx="1.5"
        cy="46.5"
        fill="#BBE7F0"
        r="1.5" />
    <circle
        cx="14.5"
        cy="46.5"
        fill="#BBE7F0"
        r="1.5" />
    <circle
        cx="27.5"
        cy="46.5"
        fill="#BBE7F0"
        r="1.5" />
    <circle
        cx="40.5"
        cy="46.5"
        fill="#BBE7F0"
        r="1.5" />
    <circle
        cx="53.5"
        cy="46.5"
        fill="#BBE7F0"
        r="1.5" />
    <circle
        cx="66.5"
        cy="46.5"
        fill="#BBE7F0"
        r="1.5" />
    <circle
        cx="79.5"
        cy="46.5"
        fill="#BBE7F0"
        r="1.5" />
    <circle
        cx="92.5"
        cy="46.5"
        fill="#BBE7F0"
        r="1.5" />
    <circle
        cx="1.5"
        cy="55.5"
        fill="#BBE7F0"
        r="1.5" />
    <circle
        cx="14.5"
        cy="55.5"
        fill="#BBE7F0"
        r="1.5" />
    <circle
        cx="27.5"
        cy="55.5"
        fill="#BBE7F0"
        r="1.5" />
    <circle
        cx="40.5"
        cy="55.5"
        fill="#BBE7F0"
        r="1.5" />
    <circle
        cx="53.5"
        cy="55.5"
        fill="#BBE7F0"
        r="1.5" />
    <circle
        cx="66.5"
        cy="55.5"
        fill="#BBE7F0"
        r="1.5" />
    <circle
        cx="79.5"
        cy="55.5"
        fill="#BBE7F0"
        r="1.5" />
    <circle
        cx="92.5"
        cy="55.5"
        fill="#BBE7F0"
        r="1.5" />
    <circle
        cx="105.5"
        cy="55.5"
        fill="#BBE7F0"
        r="1.5" />
    <circle
        cx="118.5"
        cy="55.5"
        fill="#BBE7F0"
        r="1.5" />
</svg>
