<svg xmlns="http://www.w3.org/2000/svg" xmlns:xlink="http://www.w3.org/1999/xlink" version="1.1" width="1000" height="1000" viewBox="0 0 1000 1000" xml:space="preserve">
<desc>Created with Fabric.js 3.5.0</desc>
<defs>
</defs>
<rect x="0" y="0" width="100%" height="100%" fill="transparent"/>
<g transform="matrix(1.1756 0 0 1.1756 500.0151 500.0055)" id="468795">
<g style="">
		<g transform="matrix(5.289 0 0 5.289 -206.8799 -142.8027)" id="729396">
<circle style="stroke: none; stroke-width: 1; stroke-dasharray: none; stroke-linecap: butt; stroke-dashoffset: 0; stroke-linejoin: miter; stroke-miterlimit: 4; is-custom-font: none; font-file-url: none; fill: rgb(187,231,240); fill-rule: nonzero; opacity: 1;" cx="0" cy="0" r="1.5"/>
</g>
		<g transform="matrix(5.289 0 0 5.289 -138.123 -142.8027)" id="670621">
<circle style="stroke: none; stroke-width: 1; stroke-dasharray: none; stroke-linecap: butt; stroke-dashoffset: 0; stroke-linejoin: miter; stroke-miterlimit: 4; is-custom-font: none; font-file-url: none; fill: rgb(187,231,240); fill-rule: nonzero; opacity: 1;" cx="0" cy="0" r="1.5"/>
</g>
		<g transform="matrix(5.289 0 0 5.289 -69.3661 -142.8027)" id="758976">
<circle style="stroke: none; stroke-width: 1; stroke-dasharray: none; stroke-linecap: butt; stroke-dashoffset: 0; stroke-linejoin: miter; stroke-miterlimit: 4; is-custom-font: none; font-file-url: none; fill: rgb(187,231,240); fill-rule: nonzero; opacity: 1;" cx="0" cy="0" r="1.5"/>
</g>
		<g transform="matrix(5.289 0 0 5.289 -206.8799 -95.2018)" id="940082">
<circle style="stroke: none; stroke-width: 1; stroke-dasharray: none; stroke-linecap: butt; stroke-dashoffset: 0; stroke-linejoin: miter; stroke-miterlimit: 4; is-custom-font: none; font-file-url: none; fill: rgb(187,231,240); fill-rule: nonzero; opacity: 1;" cx="0" cy="0" r="1.5"/>
</g>
		<g transform="matrix(5.289 0 0 5.289 -138.123 -95.2018)" id="664982">
<circle style="stroke: none; stroke-width: 1; stroke-dasharray: none; stroke-linecap: butt; stroke-dashoffset: 0; stroke-linejoin: miter; stroke-miterlimit: 4; is-custom-font: none; font-file-url: none; fill: rgb(187,231,240); fill-rule: nonzero; opacity: 1;" cx="0" cy="0" r="1.5"/>
</g>
		<g transform="matrix(5.289 0 0 5.289 -69.3661 -95.2018)" id="756956">
<circle style="stroke: none; stroke-width: 1; stroke-dasharray: none; stroke-linecap: butt; stroke-dashoffset: 0; stroke-linejoin: miter; stroke-miterlimit: 4; is-custom-font: none; font-file-url: none; fill: rgb(187,231,240); fill-rule: nonzero; opacity: 1;" cx="0" cy="0" r="1.5"/>
</g>
		<g transform="matrix(5.289 0 0 5.289 -206.8799 -47.6009)" id="454434">
<circle style="stroke: none; stroke-width: 1; stroke-dasharray: none; stroke-linecap: butt; stroke-dashoffset: 0; stroke-linejoin: miter; stroke-miterlimit: 4; is-custom-font: none; font-file-url: none; fill: rgb(187,231,240); fill-rule: nonzero; opacity: 1;" cx="0" cy="0" r="1.5"/>
</g>
		<g transform="matrix(5.289 0 0 5.289 -138.123 -47.6009)" id="67583">
<circle style="stroke: none; stroke-width: 1; stroke-dasharray: none; stroke-linecap: butt; stroke-dashoffset: 0; stroke-linejoin: miter; stroke-miterlimit: 4; is-custom-font: none; font-file-url: none; fill: rgb(187,231,240); fill-rule: nonzero; opacity: 1;" cx="0" cy="0" r="1.5"/>
</g>
		<g transform="matrix(5.289 0 0 5.289 -69.3661 -47.6009)" id="774231">
<circle style="stroke: none; stroke-width: 1; stroke-dasharray: none; stroke-linecap: butt; stroke-dashoffset: 0; stroke-linejoin: miter; stroke-miterlimit: 4; is-custom-font: none; font-file-url: none; fill: rgb(187,231,240); fill-rule: nonzero; opacity: 1;" cx="0" cy="0" r="1.5"/>
</g>
		<g transform="matrix(5.289 0 0 5.289 -0.6092 -47.6009)" id="806006">
<circle style="stroke: none; stroke-width: 1; stroke-dasharray: none; stroke-linecap: butt; stroke-dashoffset: 0; stroke-linejoin: miter; stroke-miterlimit: 4; is-custom-font: none; font-file-url: none; fill: rgb(187,231,240); fill-rule: nonzero; opacity: 1;" cx="0" cy="0" r="1.5"/>
</g>
		<g transform="matrix(5.289 0 0 5.289 -206.8799 0)" id="1553">
<circle style="stroke: none; stroke-width: 1; stroke-dasharray: none; stroke-linecap: butt; stroke-dashoffset: 0; stroke-linejoin: miter; stroke-miterlimit: 4; is-custom-font: none; font-file-url: none; fill: rgb(187,231,240); fill-rule: nonzero; opacity: 1;" cx="0" cy="0" r="1.5"/>
</g>
		<g transform="matrix(5.289 0 0 5.289 -138.123 0)" id="171994">
<circle style="stroke: none; stroke-width: 1; stroke-dasharray: none; stroke-linecap: butt; stroke-dashoffset: 0; stroke-linejoin: miter; stroke-miterlimit: 4; is-custom-font: none; font-file-url: none; fill: rgb(187,231,240); fill-rule: nonzero; opacity: 1;" cx="0" cy="0" r="1.5"/>
</g>
		<g transform="matrix(5.289 0 0 5.289 -69.3661 0)" id="899600">
<circle style="stroke: none; stroke-width: 1; stroke-dasharray: none; stroke-linecap: butt; stroke-dashoffset: 0; stroke-linejoin: miter; stroke-miterlimit: 4; is-custom-font: none; font-file-url: none; fill: rgb(187,231,240); fill-rule: nonzero; opacity: 1;" cx="0" cy="0" r="1.5"/>
</g>
		<g transform="matrix(5.289 0 0 5.289 -0.6092 0)" id="229934">
<circle style="stroke: none; stroke-width: 1; stroke-dasharray: none; stroke-linecap: butt; stroke-dashoffset: 0; stroke-linejoin: miter; stroke-miterlimit: 4; is-custom-font: none; font-file-url: none; fill: rgb(187,231,240); fill-rule: nonzero; opacity: 1;" cx="0" cy="0" r="1.5"/>
</g>
		<g transform="matrix(5.289 0 0 5.289 -206.8799 47.6009)" id="15243">
<circle style="stroke: none; stroke-width: 1; stroke-dasharray: none; stroke-linecap: butt; stroke-dashoffset: 0; stroke-linejoin: miter; stroke-miterlimit: 4; is-custom-font: none; font-file-url: none; fill: rgb(187,231,240); fill-rule: nonzero; opacity: 1;" cx="0" cy="0" r="1.5"/>
</g>
		<g transform="matrix(5.289 0 0 5.289 -138.123 47.6009)" id="705167">
<circle style="stroke: none; stroke-width: 1; stroke-dasharray: none; stroke-linecap: butt; stroke-dashoffset: 0; stroke-linejoin: miter; stroke-miterlimit: 4; is-custom-font: none; font-file-url: none; fill: rgb(187,231,240); fill-rule: nonzero; opacity: 1;" cx="0" cy="0" r="1.5"/>
</g>
		<g transform="matrix(5.289 0 0 5.289 -69.3661 47.6009)" id="320081">
<circle style="stroke: none; stroke-width: 1; stroke-dasharray: none; stroke-linecap: butt; stroke-dashoffset: 0; stroke-linejoin: miter; stroke-miterlimit: 4; is-custom-font: none; font-file-url: none; fill: rgb(187,231,240); fill-rule: nonzero; opacity: 1;" cx="0" cy="0" r="1.5"/>
</g>
		<g transform="matrix(5.289 0 0 5.289 -0.6092 47.6009)" id="128423">
<circle style="stroke: none; stroke-width: 1; stroke-dasharray: none; stroke-linecap: butt; stroke-dashoffset: 0; stroke-linejoin: miter; stroke-miterlimit: 4; is-custom-font: none; font-file-url: none; fill: rgb(187,231,240); fill-rule: nonzero; opacity: 1;" cx="0" cy="0" r="1.5"/>
</g>
		<g transform="matrix(5.289 0 0 5.289 68.1476 47.6009)" id="897297">
<circle style="stroke: none; stroke-width: 1; stroke-dasharray: none; stroke-linecap: butt; stroke-dashoffset: 0; stroke-linejoin: miter; stroke-miterlimit: 4; is-custom-font: none; font-file-url: none; fill: rgb(187,231,240); fill-rule: nonzero; opacity: 1;" cx="0" cy="0" r="1.5"/>
</g>
		<g transform="matrix(5.289 0 0 5.289 136.9045 47.6009)" id="213109">
<circle style="stroke: none; stroke-width: 1; stroke-dasharray: none; stroke-linecap: butt; stroke-dashoffset: 0; stroke-linejoin: miter; stroke-miterlimit: 4; is-custom-font: none; font-file-url: none; fill: rgb(187,231,240); fill-rule: nonzero; opacity: 1;" cx="0" cy="0" r="1.5"/>
</g>
		<g transform="matrix(5.289 0 0 5.289 -206.8799 95.2018)" id="633548">
<circle style="stroke: none; stroke-width: 1; stroke-dasharray: none; stroke-linecap: butt; stroke-dashoffset: 0; stroke-linejoin: miter; stroke-miterlimit: 4; is-custom-font: none; font-file-url: none; fill: rgb(187,231,240); fill-rule: nonzero; opacity: 1;" cx="0" cy="0" r="1.5"/>
</g>
		<g transform="matrix(5.289 0 0 5.289 -138.123 95.2018)" id="68665">
<circle style="stroke: none; stroke-width: 1; stroke-dasharray: none; stroke-linecap: butt; stroke-dashoffset: 0; stroke-linejoin: miter; stroke-miterlimit: 4; is-custom-font: none; font-file-url: none; fill: rgb(187,231,240); fill-rule: nonzero; opacity: 1;" cx="0" cy="0" r="1.5"/>
</g>
		<g transform="matrix(5.289 0 0 5.289 -69.3661 95.2018)" id="611317">
<circle style="stroke: none; stroke-width: 1; stroke-dasharray: none; stroke-linecap: butt; stroke-dashoffset: 0; stroke-linejoin: miter; stroke-miterlimit: 4; is-custom-font: none; font-file-url: none; fill: rgb(187,231,240); fill-rule: nonzero; opacity: 1;" cx="0" cy="0" r="1.5"/>
</g>
		<g transform="matrix(5.289 0 0 5.289 -0.6092 95.2018)" id="407372">
<circle style="stroke: none; stroke-width: 1; stroke-dasharray: none; stroke-linecap: butt; stroke-dashoffset: 0; stroke-linejoin: miter; stroke-miterlimit: 4; is-custom-font: none; font-file-url: none; fill: rgb(187,231,240); fill-rule: nonzero; opacity: 1;" cx="0" cy="0" r="1.5"/>
</g>
		<g transform="matrix(5.289 0 0 5.289 68.1476 95.2018)" id="261922">
<circle style="stroke: none; stroke-width: 1; stroke-dasharray: none; stroke-linecap: butt; stroke-dashoffset: 0; stroke-linejoin: miter; stroke-miterlimit: 4; is-custom-font: none; font-file-url: none; fill: rgb(187,231,240); fill-rule: nonzero; opacity: 1;" cx="0" cy="0" r="1.5"/>
</g>
		<g transform="matrix(5.289 0 0 5.289 136.9045 95.2018)" id="619904">
<circle style="stroke: none; stroke-width: 1; stroke-dasharray: none; stroke-linecap: butt; stroke-dashoffset: 0; stroke-linejoin: miter; stroke-miterlimit: 4; is-custom-font: none; font-file-url: none; fill: rgb(187,231,240); fill-rule: nonzero; opacity: 1;" cx="0" cy="0" r="1.5"/>
</g>
		<g transform="matrix(5.289 0 0 5.289 205.6614 95.2018)" id="758727">
<circle style="stroke: none; stroke-width: 1; stroke-dasharray: none; stroke-linecap: butt; stroke-dashoffset: 0; stroke-linejoin: miter; stroke-miterlimit: 4; is-custom-font: none; font-file-url: none; fill: rgb(187,231,240); fill-rule: nonzero; opacity: 1;" cx="0" cy="0" r="1.5"/>
</g>
		<g transform="matrix(5.289 0 0 5.289 274.4183 95.2018)" id="128356">
<circle style="stroke: none; stroke-width: 1; stroke-dasharray: none; stroke-linecap: butt; stroke-dashoffset: 0; stroke-linejoin: miter; stroke-miterlimit: 4; is-custom-font: none; font-file-url: none; fill: rgb(187,231,240); fill-rule: nonzero; opacity: 1;" cx="0" cy="0" r="1.5"/>
</g>
		<g transform="matrix(5.289 0 0 5.289 -206.8799 142.8027)" id="165159">
<circle style="stroke: none; stroke-width: 1; stroke-dasharray: none; stroke-linecap: butt; stroke-dashoffset: 0; stroke-linejoin: miter; stroke-miterlimit: 4; is-custom-font: none; font-file-url: none; fill: rgb(187,231,240); fill-rule: nonzero; opacity: 1;" cx="0" cy="0" r="1.5"/>
</g>
		<g transform="matrix(5.289 0 0 5.289 -138.123 142.8027)" id="320889">
<circle style="stroke: none; stroke-width: 1; stroke-dasharray: none; stroke-linecap: butt; stroke-dashoffset: 0; stroke-linejoin: miter; stroke-miterlimit: 4; is-custom-font: none; font-file-url: none; fill: rgb(187,231,240); fill-rule: nonzero; opacity: 1;" cx="0" cy="0" r="1.5"/>
</g>
		<g transform="matrix(5.289 0 0 5.289 -69.3661 142.8027)" id="363039">
<circle style="stroke: none; stroke-width: 1; stroke-dasharray: none; stroke-linecap: butt; stroke-dashoffset: 0; stroke-linejoin: miter; stroke-miterlimit: 4; is-custom-font: none; font-file-url: none; fill: rgb(187,231,240); fill-rule: nonzero; opacity: 1;" cx="0" cy="0" r="1.5"/>
</g>
		<g transform="matrix(5.289 0 0 5.289 -0.6092 142.8027)" id="188103">
<circle style="stroke: none; stroke-width: 1; stroke-dasharray: none; stroke-linecap: butt; stroke-dashoffset: 0; stroke-linejoin: miter; stroke-miterlimit: 4; is-custom-font: none; font-file-url: none; fill: rgb(187,231,240); fill-rule: nonzero; opacity: 1;" cx="0" cy="0" r="1.5"/>
</g>
		<g transform="matrix(5.289 0 0 5.289 68.1476 142.8027)" id="581814">
<circle style="stroke: none; stroke-width: 1; stroke-dasharray: none; stroke-linecap: butt; stroke-dashoffset: 0; stroke-linejoin: miter; stroke-miterlimit: 4; is-custom-font: none; font-file-url: none; fill: rgb(187,231,240); fill-rule: nonzero; opacity: 1;" cx="0" cy="0" r="1.5"/>
</g>
		<g transform="matrix(5.289 0 0 5.289 136.9045 142.8027)" id="797250">
<circle style="stroke: none; stroke-width: 1; stroke-dasharray: none; stroke-linecap: butt; stroke-dashoffset: 0; stroke-linejoin: miter; stroke-miterlimit: 4; is-custom-font: none; font-file-url: none; fill: rgb(187,231,240); fill-rule: nonzero; opacity: 1;" cx="0" cy="0" r="1.5"/>
</g>
		<g transform="matrix(5.289 0 0 5.289 205.6614 142.8027)" id="579657">
<circle style="stroke: none; stroke-width: 1; stroke-dasharray: none; stroke-linecap: butt; stroke-dashoffset: 0; stroke-linejoin: miter; stroke-miterlimit: 4; is-custom-font: none; font-file-url: none; fill: rgb(187,231,240); fill-rule: nonzero; opacity: 1;" cx="0" cy="0" r="1.5"/>
</g>
		<g transform="matrix(5.289 0 0 5.289 274.4183 142.8027)" id="125449">
<circle style="stroke: none; stroke-width: 1; stroke-dasharray: none; stroke-linecap: butt; stroke-dashoffset: 0; stroke-linejoin: miter; stroke-miterlimit: 4; is-custom-font: none; font-file-url: none; fill: rgb(187,231,240); fill-rule: nonzero; opacity: 1;" cx="0" cy="0" r="1.5"/>
</g>
		<g transform="matrix(5.289 0 0 5.289 343.1751 142.8027)" id="708907">
<circle style="stroke: none; stroke-width: 1; stroke-dasharray: none; stroke-linecap: butt; stroke-dashoffset: 0; stroke-linejoin: miter; stroke-miterlimit: 4; is-custom-font: none; font-file-url: none; fill: rgb(187,231,240); fill-rule: nonzero; opacity: 1;" cx="0" cy="0" r="1.5"/>
</g>
		<g transform="matrix(5.289 0 0 5.289 411.932 142.8027)" id="826352">
<circle style="stroke: none; stroke-width: 1; stroke-dasharray: none; stroke-linecap: butt; stroke-dashoffset: 0; stroke-linejoin: miter; stroke-miterlimit: 4; is-custom-font: none; font-file-url: none; fill: rgb(187,231,240); fill-rule: nonzero; opacity: 1;" cx="0" cy="0" r="1.5"/>
</g>
		<g transform="matrix(5.289 0 0 5.289 -411.932 -142.8027)" id="903586">
<circle style="stroke: none; stroke-width: 1; stroke-dasharray: none; stroke-linecap: butt; stroke-dashoffset: 0; stroke-linejoin: miter; stroke-miterlimit: 4; is-custom-font: none; font-file-url: none; fill: rgb(187,231,240); fill-rule: nonzero; opacity: 1;" cx="0" cy="0" r="1.5"/>
</g>
		<g transform="matrix(5.289 0 0 5.289 -343.1751 -142.8027)" id="75141">
<circle style="stroke: none; stroke-width: 1; stroke-dasharray: none; stroke-linecap: butt; stroke-dashoffset: 0; stroke-linejoin: miter; stroke-miterlimit: 4; is-custom-font: none; font-file-url: none; fill: rgb(187,231,240); fill-rule: nonzero; opacity: 1;" cx="0" cy="0" r="1.5"/>
</g>
		<g transform="matrix(5.289 0 0 5.289 -274.4182 -142.8027)" id="381469">
<circle style="stroke: none; stroke-width: 1; stroke-dasharray: none; stroke-linecap: butt; stroke-dashoffset: 0; stroke-linejoin: miter; stroke-miterlimit: 4; is-custom-font: none; font-file-url: none; fill: rgb(187,231,240); fill-rule: nonzero; opacity: 1;" cx="0" cy="0" r="1.5"/>
</g>
		<g transform="matrix(5.289 0 0 5.289 -411.932 -95.2018)" id="359829">
<circle style="stroke: none; stroke-width: 1; stroke-dasharray: none; stroke-linecap: butt; stroke-dashoffset: 0; stroke-linejoin: miter; stroke-miterlimit: 4; is-custom-font: none; font-file-url: none; fill: rgb(187,231,240); fill-rule: nonzero; opacity: 1;" cx="0" cy="0" r="1.5"/>
</g>
		<g transform="matrix(5.289 0 0 5.289 -343.1751 -95.2018)" id="807321">
<circle style="stroke: none; stroke-width: 1; stroke-dasharray: none; stroke-linecap: butt; stroke-dashoffset: 0; stroke-linejoin: miter; stroke-miterlimit: 4; is-custom-font: none; font-file-url: none; fill: rgb(187,231,240); fill-rule: nonzero; opacity: 1;" cx="0" cy="0" r="1.5"/>
</g>
		<g transform="matrix(5.289 0 0 5.289 -274.4182 -95.2018)" id="128226">
<circle style="stroke: none; stroke-width: 1; stroke-dasharray: none; stroke-linecap: butt; stroke-dashoffset: 0; stroke-linejoin: miter; stroke-miterlimit: 4; is-custom-font: none; font-file-url: none; fill: rgb(187,231,240); fill-rule: nonzero; opacity: 1;" cx="0" cy="0" r="1.5"/>
</g>
		<g transform="matrix(5.289 0 0 5.289 -411.932 -47.6009)" id="449025">
<circle style="stroke: none; stroke-width: 1; stroke-dasharray: none; stroke-linecap: butt; stroke-dashoffset: 0; stroke-linejoin: miter; stroke-miterlimit: 4; is-custom-font: none; font-file-url: none; fill: rgb(187,231,240); fill-rule: nonzero; opacity: 1;" cx="0" cy="0" r="1.5"/>
</g>
		<g transform="matrix(5.289 0 0 5.289 -343.1751 -47.6009)" id="100606">
<circle style="stroke: none; stroke-width: 1; stroke-dasharray: none; stroke-linecap: butt; stroke-dashoffset: 0; stroke-linejoin: miter; stroke-miterlimit: 4; is-custom-font: none; font-file-url: none; fill: rgb(187,231,240); fill-rule: nonzero; opacity: 1;" cx="0" cy="0" r="1.5"/>
</g>
		<g transform="matrix(5.289 0 0 5.289 -274.4182 -47.6009)" id="285345">
<circle style="stroke: none; stroke-width: 1; stroke-dasharray: none; stroke-linecap: butt; stroke-dashoffset: 0; stroke-linejoin: miter; stroke-miterlimit: 4; is-custom-font: none; font-file-url: none; fill: rgb(187,231,240); fill-rule: nonzero; opacity: 1;" cx="0" cy="0" r="1.5"/>
</g>
		<g transform="matrix(5.289 0 0 5.289 -411.932 0)" id="948436">
<circle style="stroke: none; stroke-width: 1; stroke-dasharray: none; stroke-linecap: butt; stroke-dashoffset: 0; stroke-linejoin: miter; stroke-miterlimit: 4; is-custom-font: none; font-file-url: none; fill: rgb(187,231,240); fill-rule: nonzero; opacity: 1;" cx="0" cy="0" r="1.5"/>
</g>
		<g transform="matrix(5.289 0 0 5.289 -343.1751 0)" id="95909">
<circle style="stroke: none; stroke-width: 1; stroke-dasharray: none; stroke-linecap: butt; stroke-dashoffset: 0; stroke-linejoin: miter; stroke-miterlimit: 4; is-custom-font: none; font-file-url: none; fill: rgb(187,231,240); fill-rule: nonzero; opacity: 1;" cx="0" cy="0" r="1.5"/>
</g>
		<g transform="matrix(5.289 0 0 5.289 -274.4182 0)" id="361413">
<circle style="stroke: none; stroke-width: 1; stroke-dasharray: none; stroke-linecap: butt; stroke-dashoffset: 0; stroke-linejoin: miter; stroke-miterlimit: 4; is-custom-font: none; font-file-url: none; fill: rgb(187,231,240); fill-rule: nonzero; opacity: 1;" cx="0" cy="0" r="1.5"/>
</g>
		<g transform="matrix(5.289 0 0 5.289 -411.932 47.6009)" id="928662">
<circle style="stroke: none; stroke-width: 1; stroke-dasharray: none; stroke-linecap: butt; stroke-dashoffset: 0; stroke-linejoin: miter; stroke-miterlimit: 4; is-custom-font: none; font-file-url: none; fill: rgb(187,231,240); fill-rule: nonzero; opacity: 1;" cx="0" cy="0" r="1.5"/>
</g>
		<g transform="matrix(5.289 0 0 5.289 -343.1751 47.6009)" id="476160">
<circle style="stroke: none; stroke-width: 1; stroke-dasharray: none; stroke-linecap: butt; stroke-dashoffset: 0; stroke-linejoin: miter; stroke-miterlimit: 4; is-custom-font: none; font-file-url: none; fill: rgb(187,231,240); fill-rule: nonzero; opacity: 1;" cx="0" cy="0" r="1.5"/>
</g>
		<g transform="matrix(5.289 0 0 5.289 -274.4182 47.6009)" id="132593">
<circle style="stroke: none; stroke-width: 1; stroke-dasharray: none; stroke-linecap: butt; stroke-dashoffset: 0; stroke-linejoin: miter; stroke-miterlimit: 4; is-custom-font: none; font-file-url: none; fill: rgb(187,231,240); fill-rule: nonzero; opacity: 1;" cx="0" cy="0" r="1.5"/>
</g>
		<g transform="matrix(5.289 0 0 5.289 -411.932 95.2018)" id="171459">
<circle style="stroke: none; stroke-width: 1; stroke-dasharray: none; stroke-linecap: butt; stroke-dashoffset: 0; stroke-linejoin: miter; stroke-miterlimit: 4; is-custom-font: none; font-file-url: none; fill: rgb(187,231,240); fill-rule: nonzero; opacity: 1;" cx="0" cy="0" r="1.5"/>
</g>
		<g transform="matrix(5.289 0 0 5.289 -343.1751 95.2018)" id="607999">
<circle style="stroke: none; stroke-width: 1; stroke-dasharray: none; stroke-linecap: butt; stroke-dashoffset: 0; stroke-linejoin: miter; stroke-miterlimit: 4; is-custom-font: none; font-file-url: none; fill: rgb(187,231,240); fill-rule: nonzero; opacity: 1;" cx="0" cy="0" r="1.5"/>
</g>
		<g transform="matrix(5.289 0 0 5.289 -274.4182 95.2018)" id="770654">
<circle style="stroke: none; stroke-width: 1; stroke-dasharray: none; stroke-linecap: butt; stroke-dashoffset: 0; stroke-linejoin: miter; stroke-miterlimit: 4; is-custom-font: none; font-file-url: none; fill: rgb(187,231,240); fill-rule: nonzero; opacity: 1;" cx="0" cy="0" r="1.5"/>
</g>
		<g transform="matrix(5.289 0 0 5.289 -411.932 142.8027)" id="338316">
<circle style="stroke: none; stroke-width: 1; stroke-dasharray: none; stroke-linecap: butt; stroke-dashoffset: 0; stroke-linejoin: miter; stroke-miterlimit: 4; is-custom-font: none; font-file-url: none; fill: rgb(187,231,240); fill-rule: nonzero; opacity: 1;" cx="0" cy="0" r="1.5"/>
</g>
		<g transform="matrix(5.289 0 0 5.289 -343.1751 142.8027)" id="386096">
<circle style="stroke: none; stroke-width: 1; stroke-dasharray: none; stroke-linecap: butt; stroke-dashoffset: 0; stroke-linejoin: miter; stroke-miterlimit: 4; is-custom-font: none; font-file-url: none; fill: rgb(187,231,240); fill-rule: nonzero; opacity: 1;" cx="0" cy="0" r="1.5"/>
</g>
		<g transform="matrix(5.289 0 0 5.289 -274.4182 142.8027)" id="88026">
<circle style="stroke: none; stroke-width: 1; stroke-dasharray: none; stroke-linecap: butt; stroke-dashoffset: 0; stroke-linejoin: miter; stroke-miterlimit: 4; is-custom-font: none; font-file-url: none; fill: rgb(187,231,240); fill-rule: nonzero; opacity: 1;" cx="0" cy="0" r="1.5"/>
</g>
</g>
</g>
</svg>