<?xml version="1.0" encoding="UTF-8" standalone="no" ?>
<svg xmlns="http://www.w3.org/2000/svg"
    version="1.1"
    width="1080"
    height="400"
    viewBox="0 -37.78 1080 400"
    xml:space="preserve">
<desc>Created with Fabric.js 5.2.4</desc>
    <defs>
</defs>
    <rect
        x="0"
        y="0"
        width="100%"
        height="90%"
        fill="transparent" />
    <g
        transform="matrix(0 0 0 0 0 0)"
        id="80eaf1db-b7ee-4842-b8a0-a1abf36abe29">
</g>
    <g
        transform="matrix(1 0 0 1 540 200)"
        id="97b1bd7f-93f7-4738-a5ce-84fe363ecf41">
<rect
    style="stroke: none; stroke-width: 1; stroke-dasharray: none; stroke-linecap: butt; stroke-dashoffset: 0; stroke-linejoin: miter; stroke-miterlimit: 4; fill: rgb(255,255,255); fill-rule: nonzero; opacity: 1; visibility: hidden;"
    vector-effect="non-scaling-stroke"
    x="-540"
    y="-200"
    rx="0"
    ry="0"
    width="1080"
    height="400" />
</g>
    <g transform="matrix(6.64 0 0 6.64 282.39 -16.57)">
<circle
    style="stroke: none; stroke-width: 1; stroke-dasharray: none; stroke-linecap: butt; stroke-dashoffset: 0; stroke-linejoin: miter; stroke-miterlimit: 4; fill: rgb(187,231,240); fill-rule: nonzero; opacity: 1;"
    vector-effect="non-scaling-stroke"
    cx="0"
    cy="0"
    r="1.5" />
</g>
    <g transform="matrix(6.64 0 0 6.64 368.57 -16.57)">
<circle
    style="stroke: none; stroke-width: 1; stroke-dasharray: none; stroke-linecap: butt; stroke-dashoffset: 0; stroke-linejoin: miter; stroke-miterlimit: 4; fill: rgb(187,231,240); fill-rule: nonzero; opacity: 1;"
    vector-effect="non-scaling-stroke"
    cx="0"
    cy="0"
    r="1.5" />
</g>
    <g transform="matrix(6.64 0 0 6.64 454.79 -16.57)">
<circle
    style="stroke: none; stroke-width: 1; stroke-dasharray: none; stroke-linecap: butt; stroke-dashoffset: 0; stroke-linejoin: miter; stroke-miterlimit: 4; fill: rgb(187,231,240); fill-rule: nonzero; opacity: 1;"
    vector-effect="non-scaling-stroke"
    cx="0"
    cy="0"
    r="1.5" />
</g>
    <g transform="matrix(6.64 0 0 6.64 282.39 43.13)">
<circle
    style="stroke: none; stroke-width: 1; stroke-dasharray: none; stroke-linecap: butt; stroke-dashoffset: 0; stroke-linejoin: miter; stroke-miterlimit: 4; fill: rgb(187,231,240); fill-rule: nonzero; opacity: 1;"
    vector-effect="non-scaling-stroke"
    cx="0"
    cy="0"
    r="1.5" />
</g>
    <g transform="matrix(6.64 0 0 6.64 368.57 43.13)">
<circle
    style="stroke: none; stroke-width: 1; stroke-dasharray: none; stroke-linecap: butt; stroke-dashoffset: 0; stroke-linejoin: miter; stroke-miterlimit: 4; fill: rgb(187,231,240); fill-rule: nonzero; opacity: 1;"
    vector-effect="non-scaling-stroke"
    cx="0"
    cy="0"
    r="1.5" />
</g>
    <g transform="matrix(6.64 0 0 6.64 454.79 43.13)">
<circle
    style="stroke: none; stroke-width: 1; stroke-dasharray: none; stroke-linecap: butt; stroke-dashoffset: 0; stroke-linejoin: miter; stroke-miterlimit: 4; fill: rgb(187,231,240); fill-rule: nonzero; opacity: 1;"
    vector-effect="non-scaling-stroke"
    cx="0"
    cy="0"
    r="1.5" />
</g>
    <g transform="matrix(6.64 0 0 6.64 282.39 102.8)">
<circle
    style="stroke: none; stroke-width: 1; stroke-dasharray: none; stroke-linecap: butt; stroke-dashoffset: 0; stroke-linejoin: miter; stroke-miterlimit: 4; fill: rgb(187,231,240); fill-rule: nonzero; opacity: 1;"
    vector-effect="non-scaling-stroke"
    cx="0"
    cy="0"
    r="1.5" />
</g>
    <g transform="matrix(6.64 0 0 6.64 368.57 102.8)">
<circle
    style="stroke: none; stroke-width: 1; stroke-dasharray: none; stroke-linecap: butt; stroke-dashoffset: 0; stroke-linejoin: miter; stroke-miterlimit: 4; fill: rgb(187,231,240); fill-rule: nonzero; opacity: 1;"
    vector-effect="non-scaling-stroke"
    cx="0"
    cy="0"
    r="1.5" />
</g>
    <g transform="matrix(6.64 0 0 6.64 454.79 102.8)">
<circle
    style="stroke: none; stroke-width: 1; stroke-dasharray: none; stroke-linecap: butt; stroke-dashoffset: 0; stroke-linejoin: miter; stroke-miterlimit: 4; fill: rgb(187,231,240); fill-rule: nonzero; opacity: 1;"
    vector-effect="non-scaling-stroke"
    cx="0"
    cy="0"
    r="1.5" />
</g>
    <g transform="matrix(6.64 0 0 6.64 540.98 102.8)">
<circle
    style="stroke: none; stroke-width: 1; stroke-dasharray: none; stroke-linecap: butt; stroke-dashoffset: 0; stroke-linejoin: miter; stroke-miterlimit: 4; fill: rgb(187,231,240); fill-rule: nonzero; opacity: 1;"
    vector-effect="non-scaling-stroke"
    cx="0"
    cy="0"
    r="1.5" />
</g>
    <g transform="matrix(6.64 0 0 6.64 282.39 162.47)">
<circle
    style="stroke: none; stroke-width: 1; stroke-dasharray: none; stroke-linecap: butt; stroke-dashoffset: 0; stroke-linejoin: miter; stroke-miterlimit: 4; fill: rgb(187,231,240); fill-rule: nonzero; opacity: 1;"
    vector-effect="non-scaling-stroke"
    cx="0"
    cy="0"
    r="1.5" />
</g>
    <g transform="matrix(6.64 0 0 6.64 368.57 162.47)">
<circle
    style="stroke: none; stroke-width: 1; stroke-dasharray: none; stroke-linecap: butt; stroke-dashoffset: 0; stroke-linejoin: miter; stroke-miterlimit: 4; fill: rgb(187,231,240); fill-rule: nonzero; opacity: 1;"
    vector-effect="non-scaling-stroke"
    cx="0"
    cy="0"
    r="1.5" />
</g>
    <g transform="matrix(6.64 0 0 6.64 454.79 162.47)">
<circle
    style="stroke: none; stroke-width: 1; stroke-dasharray: none; stroke-linecap: butt; stroke-dashoffset: 0; stroke-linejoin: miter; stroke-miterlimit: 4; fill: rgb(187,231,240); fill-rule: nonzero; opacity: 1;"
    vector-effect="non-scaling-stroke"
    cx="0"
    cy="0"
    r="1.5" />
</g>
    <g transform="matrix(6.64 0 0 6.64 540.98 162.47)">
<circle
    style="stroke: none; stroke-width: 1; stroke-dasharray: none; stroke-linecap: butt; stroke-dashoffset: 0; stroke-linejoin: miter; stroke-miterlimit: 4; fill: rgb(187,231,240); fill-rule: nonzero; opacity: 1;"
    vector-effect="non-scaling-stroke"
    cx="0"
    cy="0"
    r="1.5" />
</g>
    <g transform="matrix(6.64 0 0 6.64 282.39 222.17)">
<circle
    style="stroke: none; stroke-width: 1; stroke-dasharray: none; stroke-linecap: butt; stroke-dashoffset: 0; stroke-linejoin: miter; stroke-miterlimit: 4; fill: rgb(187,231,240); fill-rule: nonzero; opacity: 1;"
    vector-effect="non-scaling-stroke"
    cx="0"
    cy="0"
    r="1.5" />
</g>
    <g transform="matrix(6.64 0 0 6.64 368.57 222.17)">
<circle
    style="stroke: none; stroke-width: 1; stroke-dasharray: none; stroke-linecap: butt; stroke-dashoffset: 0; stroke-linejoin: miter; stroke-miterlimit: 4; fill: rgb(187,231,240); fill-rule: nonzero; opacity: 1;"
    vector-effect="non-scaling-stroke"
    cx="0"
    cy="0"
    r="1.5" />
</g>
    <g transform="matrix(6.64 0 0 6.64 454.79 222.17)">
<circle
    style="stroke: none; stroke-width: 1; stroke-dasharray: none; stroke-linecap: butt; stroke-dashoffset: 0; stroke-linejoin: miter; stroke-miterlimit: 4; fill: rgb(187,231,240); fill-rule: nonzero; opacity: 1;"
    vector-effect="non-scaling-stroke"
    cx="0"
    cy="0"
    r="1.5" />
</g>
    <g transform="matrix(6.64 0 0 6.64 540.98 222.17)">
<circle
    style="stroke: none; stroke-width: 1; stroke-dasharray: none; stroke-linecap: butt; stroke-dashoffset: 0; stroke-linejoin: miter; stroke-miterlimit: 4; fill: rgb(187,231,240); fill-rule: nonzero; opacity: 1;"
    vector-effect="non-scaling-stroke"
    cx="0"
    cy="0"
    r="1.5" />
</g>
    <g transform="matrix(6.64 0 0 6.64 627.2 222.17)">
<circle
    style="stroke: none; stroke-width: 1; stroke-dasharray: none; stroke-linecap: butt; stroke-dashoffset: 0; stroke-linejoin: miter; stroke-miterlimit: 4; fill: rgb(187,231,240); fill-rule: nonzero; opacity: 1;"
    vector-effect="non-scaling-stroke"
    cx="0"
    cy="0"
    r="1.5" />
</g>
    <g transform="matrix(6.64 0 0 6.64 713.38 222.17)">
<circle
    style="stroke: none; stroke-width: 1; stroke-dasharray: none; stroke-linecap: butt; stroke-dashoffset: 0; stroke-linejoin: miter; stroke-miterlimit: 4; fill: rgb(187,231,240); fill-rule: nonzero; opacity: 1;"
    vector-effect="non-scaling-stroke"
    cx="0"
    cy="0"
    r="1.5" />
</g>
    <g transform="matrix(6.64 0 0 6.64 282.39 281.84)">
<circle
    style="stroke: none; stroke-width: 1; stroke-dasharray: none; stroke-linecap: butt; stroke-dashoffset: 0; stroke-linejoin: miter; stroke-miterlimit: 4; fill: rgb(187,231,240); fill-rule: nonzero; opacity: 1;"
    vector-effect="non-scaling-stroke"
    cx="0"
    cy="0"
    r="1.5" />
</g>
    <g transform="matrix(6.64 0 0 6.64 368.57 281.84)">
<circle
    style="stroke: none; stroke-width: 1; stroke-dasharray: none; stroke-linecap: butt; stroke-dashoffset: 0; stroke-linejoin: miter; stroke-miterlimit: 4; fill: rgb(187,231,240); fill-rule: nonzero; opacity: 1;"
    vector-effect="non-scaling-stroke"
    cx="0"
    cy="0"
    r="1.5" />
</g>
    <g transform="matrix(6.64 0 0 6.64 454.79 281.84)">
<circle
    style="stroke: none; stroke-width: 1; stroke-dasharray: none; stroke-linecap: butt; stroke-dashoffset: 0; stroke-linejoin: miter; stroke-miterlimit: 4; fill: rgb(187,231,240); fill-rule: nonzero; opacity: 1;"
    vector-effect="non-scaling-stroke"
    cx="0"
    cy="0"
    r="1.5" />
</g>
    <g transform="matrix(6.64 0 0 6.64 540.98 281.84)">
<circle
    style="stroke: none; stroke-width: 1; stroke-dasharray: none; stroke-linecap: butt; stroke-dashoffset: 0; stroke-linejoin: miter; stroke-miterlimit: 4; fill: rgb(187,231,240); fill-rule: nonzero; opacity: 1;"
    vector-effect="non-scaling-stroke"
    cx="0"
    cy="0"
    r="1.5" />
</g>
    <g transform="matrix(6.64 0 0 6.64 627.2 281.84)">
<circle
    style="stroke: none; stroke-width: 1; stroke-dasharray: none; stroke-linecap: butt; stroke-dashoffset: 0; stroke-linejoin: miter; stroke-miterlimit: 4; fill: rgb(187,231,240); fill-rule: nonzero; opacity: 1;"
    vector-effect="non-scaling-stroke"
    cx="0"
    cy="0"
    r="1.5" />
</g>
    <g transform="matrix(6.64 0 0 6.64 713.38 281.84)">
<circle
    style="stroke: none; stroke-width: 1; stroke-dasharray: none; stroke-linecap: butt; stroke-dashoffset: 0; stroke-linejoin: miter; stroke-miterlimit: 4; fill: rgb(187,231,240); fill-rule: nonzero; opacity: 1;"
    vector-effect="non-scaling-stroke"
    cx="0"
    cy="0"
    r="1.5" />
</g>
    <g transform="matrix(6.64 0 0 6.64 799.57 281.84)">
<circle
    style="stroke: none; stroke-width: 1; stroke-dasharray: none; stroke-linecap: butt; stroke-dashoffset: 0; stroke-linejoin: miter; stroke-miterlimit: 4; fill: rgb(187,231,240); fill-rule: nonzero; opacity: 1;"
    vector-effect="non-scaling-stroke"
    cx="0"
    cy="0"
    r="1.5" />
</g>
    <g transform="matrix(6.64 0 0 6.64 885.79 281.84)">
<circle
    style="stroke: none; stroke-width: 1; stroke-dasharray: none; stroke-linecap: butt; stroke-dashoffset: 0; stroke-linejoin: miter; stroke-miterlimit: 4; fill: rgb(187,231,240); fill-rule: nonzero; opacity: 1;"
    vector-effect="non-scaling-stroke"
    cx="0"
    cy="0"
    r="1.5" />
</g>
    <g transform="matrix(6.64 0 0 6.64 282.39 341.51)">
<circle
    style="stroke: none; stroke-width: 1; stroke-dasharray: none; stroke-linecap: butt; stroke-dashoffset: 0; stroke-linejoin: miter; stroke-miterlimit: 4; fill: rgb(187,231,240); fill-rule: nonzero; opacity: 1;"
    vector-effect="non-scaling-stroke"
    cx="0"
    cy="0"
    r="1.5" />
</g>
    <g transform="matrix(6.64 0 0 6.64 368.57 341.51)">
<circle
    style="stroke: none; stroke-width: 1; stroke-dasharray: none; stroke-linecap: butt; stroke-dashoffset: 0; stroke-linejoin: miter; stroke-miterlimit: 4; fill: rgb(187,231,240); fill-rule: nonzero; opacity: 1;"
    vector-effect="non-scaling-stroke"
    cx="0"
    cy="0"
    r="1.5" />
</g>
    <g transform="matrix(6.64 0 0 6.64 454.79 341.51)">
<circle
    style="stroke: none; stroke-width: 1; stroke-dasharray: none; stroke-linecap: butt; stroke-dashoffset: 0; stroke-linejoin: miter; stroke-miterlimit: 4; fill: rgb(187,231,240); fill-rule: nonzero; opacity: 1;"
    vector-effect="non-scaling-stroke"
    cx="0"
    cy="0"
    r="1.5" />
</g>
    <g transform="matrix(6.64 0 0 6.64 540.98 341.51)">
<circle
    style="stroke: none; stroke-width: 1; stroke-dasharray: none; stroke-linecap: butt; stroke-dashoffset: 0; stroke-linejoin: miter; stroke-miterlimit: 4; fill: rgb(187,231,240); fill-rule: nonzero; opacity: 1;"
    vector-effect="non-scaling-stroke"
    cx="0"
    cy="0"
    r="1.5" />
</g>
    <g transform="matrix(6.64 0 0 6.64 627.2 341.51)">
<circle
    style="stroke: none; stroke-width: 1; stroke-dasharray: none; stroke-linecap: butt; stroke-dashoffset: 0; stroke-linejoin: miter; stroke-miterlimit: 4; fill: rgb(187,231,240); fill-rule: nonzero; opacity: 1;"
    vector-effect="non-scaling-stroke"
    cx="0"
    cy="0"
    r="1.5" />
</g>
    <g transform="matrix(6.64 0 0 6.64 713.38 341.51)">
<circle
    style="stroke: none; stroke-width: 1; stroke-dasharray: none; stroke-linecap: butt; stroke-dashoffset: 0; stroke-linejoin: miter; stroke-miterlimit: 4; fill: rgb(187,231,240); fill-rule: nonzero; opacity: 1;"
    vector-effect="non-scaling-stroke"
    cx="0"
    cy="0"
    r="1.5" />
</g>
    <g transform="matrix(6.64 0 0 6.64 799.57 341.51)">
<circle
    style="stroke: none; stroke-width: 1; stroke-dasharray: none; stroke-linecap: butt; stroke-dashoffset: 0; stroke-linejoin: miter; stroke-miterlimit: 4; fill: rgb(187,231,240); fill-rule: nonzero; opacity: 1;"
    vector-effect="non-scaling-stroke"
    cx="0"
    cy="0"
    r="1.5" />
</g>
    <g transform="matrix(6.64 0 0 6.64 885.79 341.51)">
<circle
    style="stroke: none; stroke-width: 1; stroke-dasharray: none; stroke-linecap: butt; stroke-dashoffset: 0; stroke-linejoin: miter; stroke-miterlimit: 4; fill: rgb(187,231,240); fill-rule: nonzero; opacity: 1;"
    vector-effect="non-scaling-stroke"
    cx="0"
    cy="0"
    r="1.5" />
</g>
    <g transform="matrix(6.64 0 0 6.64 972.01 341.51)">
<circle
    style="stroke: none; stroke-width: 1; stroke-dasharray: none; stroke-linecap: butt; stroke-dashoffset: 0; stroke-linejoin: miter; stroke-miterlimit: 4; fill: rgb(187,231,240); fill-rule: nonzero; opacity: 1;"
    vector-effect="non-scaling-stroke"
    cx="0"
    cy="0"
    r="1.5" />
</g>
    <g transform="matrix(6.64 0 0 6.64 1058.19 341.51)">
<circle
    style="stroke: none; stroke-width: 1; stroke-dasharray: none; stroke-linecap: butt; stroke-dashoffset: 0; stroke-linejoin: miter; stroke-miterlimit: 4; fill: rgb(187,231,240); fill-rule: nonzero; opacity: 1;"
    vector-effect="non-scaling-stroke"
    cx="0"
    cy="0"
    r="1.5" />
</g>
    <g transform="matrix(6.64 0 0 6.64 25.29 -16.57)">
<circle
    style="stroke: none; stroke-width: 1; stroke-dasharray: none; stroke-linecap: butt; stroke-dashoffset: 0; stroke-linejoin: miter; stroke-miterlimit: 4; fill: rgb(187,231,240); fill-rule: nonzero; opacity: 1;"
    vector-effect="non-scaling-stroke"
    cx="0"
    cy="0"
    r="1.5" />
</g>
    <g transform="matrix(6.64 0 0 6.64 111.51 -16.57)">
<circle
    style="stroke: none; stroke-width: 1; stroke-dasharray: none; stroke-linecap: butt; stroke-dashoffset: 0; stroke-linejoin: miter; stroke-miterlimit: 4; fill: rgb(187,231,240); fill-rule: nonzero; opacity: 1;"
    vector-effect="non-scaling-stroke"
    cx="0"
    cy="0"
    r="1.5" />
</g>
    <g transform="matrix(6.64 0 0 6.64 197.73 -16.57)">
<circle
    style="stroke: none; stroke-width: 1; stroke-dasharray: none; stroke-linecap: butt; stroke-dashoffset: 0; stroke-linejoin: miter; stroke-miterlimit: 4; fill: rgb(187,231,240); fill-rule: nonzero; opacity: 1;"
    vector-effect="non-scaling-stroke"
    cx="0"
    cy="0"
    r="1.5" />
</g>
    <g transform="matrix(6.64 0 0 6.64 25.29 43.13)">
<circle
    style="stroke: none; stroke-width: 1; stroke-dasharray: none; stroke-linecap: butt; stroke-dashoffset: 0; stroke-linejoin: miter; stroke-miterlimit: 4; fill: rgb(187,231,240); fill-rule: nonzero; opacity: 1;"
    vector-effect="non-scaling-stroke"
    cx="0"
    cy="0"
    r="1.5" />
</g>
    <g transform="matrix(6.64 0 0 6.64 111.51 43.13)">
<circle
    style="stroke: none; stroke-width: 1; stroke-dasharray: none; stroke-linecap: butt; stroke-dashoffset: 0; stroke-linejoin: miter; stroke-miterlimit: 4; fill: rgb(187,231,240); fill-rule: nonzero; opacity: 1;"
    vector-effect="non-scaling-stroke"
    cx="0"
    cy="0"
    r="1.5" />
</g>
    <g transform="matrix(6.64 0 0 6.64 197.73 43.13)">
<circle
    style="stroke: none; stroke-width: 1; stroke-dasharray: none; stroke-linecap: butt; stroke-dashoffset: 0; stroke-linejoin: miter; stroke-miterlimit: 4; fill: rgb(187,231,240); fill-rule: nonzero; opacity: 1;"
    vector-effect="non-scaling-stroke"
    cx="0"
    cy="0"
    r="1.5" />
</g>
    <g transform="matrix(6.64 0 0 6.64 25.29 102.8)">
<circle
    style="stroke: none; stroke-width: 1; stroke-dasharray: none; stroke-linecap: butt; stroke-dashoffset: 0; stroke-linejoin: miter; stroke-miterlimit: 4; fill: rgb(187,231,240); fill-rule: nonzero; opacity: 1;"
    vector-effect="non-scaling-stroke"
    cx="0"
    cy="0"
    r="1.5" />
</g>
    <g transform="matrix(6.64 0 0 6.64 111.51 102.8)">
<circle
    style="stroke: none; stroke-width: 1; stroke-dasharray: none; stroke-linecap: butt; stroke-dashoffset: 0; stroke-linejoin: miter; stroke-miterlimit: 4; fill: rgb(187,231,240); fill-rule: nonzero; opacity: 1;"
    vector-effect="non-scaling-stroke"
    cx="0"
    cy="0"
    r="1.5" />
</g>
    <g transform="matrix(6.64 0 0 6.64 197.73 102.8)">
<circle
    style="stroke: none; stroke-width: 1; stroke-dasharray: none; stroke-linecap: butt; stroke-dashoffset: 0; stroke-linejoin: miter; stroke-miterlimit: 4; fill: rgb(187,231,240); fill-rule: nonzero; opacity: 1;"
    vector-effect="non-scaling-stroke"
    cx="0"
    cy="0"
    r="1.5" />
</g>
    <g transform="matrix(6.64 0 0 6.64 25.29 162.47)">
<circle
    style="stroke: none; stroke-width: 1; stroke-dasharray: none; stroke-linecap: butt; stroke-dashoffset: 0; stroke-linejoin: miter; stroke-miterlimit: 4; fill: rgb(187,231,240); fill-rule: nonzero; opacity: 1;"
    vector-effect="non-scaling-stroke"
    cx="0"
    cy="0"
    r="1.5" />
</g>
    <g transform="matrix(6.64 0 0 6.64 111.51 162.47)">
<circle
    style="stroke: none; stroke-width: 1; stroke-dasharray: none; stroke-linecap: butt; stroke-dashoffset: 0; stroke-linejoin: miter; stroke-miterlimit: 4; fill: rgb(187,231,240); fill-rule: nonzero; opacity: 1;"
    vector-effect="non-scaling-stroke"
    cx="0"
    cy="0"
    r="1.5" />
</g>
    <g transform="matrix(6.64 0 0 6.64 197.73 162.47)">
<circle
    style="stroke: none; stroke-width: 1; stroke-dasharray: none; stroke-linecap: butt; stroke-dashoffset: 0; stroke-linejoin: miter; stroke-miterlimit: 4; fill: rgb(187,231,240); fill-rule: nonzero; opacity: 1;"
    vector-effect="non-scaling-stroke"
    cx="0"
    cy="0"
    r="1.5" />
</g>
    <g transform="matrix(6.64 0 0 6.64 25.29 222.17)">
<circle
    style="stroke: none; stroke-width: 1; stroke-dasharray: none; stroke-linecap: butt; stroke-dashoffset: 0; stroke-linejoin: miter; stroke-miterlimit: 4; fill: rgb(187,231,240); fill-rule: nonzero; opacity: 1;"
    vector-effect="non-scaling-stroke"
    cx="0"
    cy="0"
    r="1.5" />
</g>
    <g transform="matrix(6.64 0 0 6.64 111.51 222.17)">
<circle
    style="stroke: none; stroke-width: 1; stroke-dasharray: none; stroke-linecap: butt; stroke-dashoffset: 0; stroke-linejoin: miter; stroke-miterlimit: 4; fill: rgb(187,231,240); fill-rule: nonzero; opacity: 1;"
    vector-effect="non-scaling-stroke"
    cx="0"
    cy="0"
    r="1.5" />
</g>
    <g transform="matrix(6.64 0 0 6.64 197.73 222.17)">
<circle
    style="stroke: none; stroke-width: 1; stroke-dasharray: none; stroke-linecap: butt; stroke-dashoffset: 0; stroke-linejoin: miter; stroke-miterlimit: 4; fill: rgb(187,231,240); fill-rule: nonzero; opacity: 1;"
    vector-effect="non-scaling-stroke"
    cx="0"
    cy="0"
    r="1.5" />
</g>
    <g transform="matrix(6.64 0 0 6.64 25.29 281.84)">
<circle
    style="stroke: none; stroke-width: 1; stroke-dasharray: none; stroke-linecap: butt; stroke-dashoffset: 0; stroke-linejoin: miter; stroke-miterlimit: 4; fill: rgb(187,231,240); fill-rule: nonzero; opacity: 1;"
    vector-effect="non-scaling-stroke"
    cx="0"
    cy="0"
    r="1.5" />
</g>
    <g transform="matrix(6.64 0 0 6.64 111.51 281.84)">
<circle
    style="stroke: none; stroke-width: 1; stroke-dasharray: none; stroke-linecap: butt; stroke-dashoffset: 0; stroke-linejoin: miter; stroke-miterlimit: 4; fill: rgb(187,231,240); fill-rule: nonzero; opacity: 1;"
    vector-effect="non-scaling-stroke"
    cx="0"
    cy="0"
    r="1.5" />
</g>
    <g transform="matrix(6.64 0 0 6.64 197.73 281.84)">
<circle
    style="stroke: none; stroke-width: 1; stroke-dasharray: none; stroke-linecap: butt; stroke-dashoffset: 0; stroke-linejoin: miter; stroke-miterlimit: 4; fill: rgb(187,231,240); fill-rule: nonzero; opacity: 1;"
    vector-effect="non-scaling-stroke"
    cx="0"
    cy="0"
    r="1.5" />
</g>
    <g transform="matrix(6.64 0 0 6.64 25.29 341.51)">
<circle
    style="stroke: none; stroke-width: 1; stroke-dasharray: none; stroke-linecap: butt; stroke-dashoffset: 0; stroke-linejoin: miter; stroke-miterlimit: 4; fill: rgb(187,231,240); fill-rule: nonzero; opacity: 1;"
    vector-effect="non-scaling-stroke"
    cx="0"
    cy="0"
    r="1.5" />
</g>
    <g transform="matrix(6.64 0 0 6.64 111.51 341.51)">
<circle
    style="stroke: none; stroke-width: 1; stroke-dasharray: none; stroke-linecap: butt; stroke-dashoffset: 0; stroke-linejoin: miter; stroke-miterlimit: 4; fill: rgb(187,231,240); fill-rule: nonzero; opacity: 1;"
    vector-effect="non-scaling-stroke"
    cx="0"
    cy="0"
    r="1.5" />
</g>
    <g transform="matrix(6.64 0 0 6.64 197.73 341.51)">
<circle
    style="stroke: none; stroke-width: 1; stroke-dasharray: none; stroke-linecap: butt; stroke-dashoffset: 0; stroke-linejoin: miter; stroke-miterlimit: 4; fill: rgb(187,231,240); fill-rule: nonzero; opacity: 1;"
    vector-effect="non-scaling-stroke"
    cx="0"
    cy="0"
    r="1.5" />
</g>
</svg>