<svg id="svg"
    version="1.1"
    xmlns="http://www.w3.org/2000/svg"
    width="400"
    height="398.4848484848485"
    viewBox="0, 0, 400,398.4848484848485">
    <g id="svgg" transform="translate(10 10) scale(0.95)">
        <path
            id="path1"
            d="M172.655 12.919 C 172.531 13.045,167.327 13.347,161.090 13.590 C 154.853 13.834,147.597 14.186,144.965 14.373 C 135.041 15.079,123.848 16.070,120.638 16.526 C 119.761 16.651,116.710 17.030,113.858 17.368 C 100.936 18.902,95.662 19.977,88.534 22.529 C 74.097 27.698,64.250 33.381,53.286 42.871 C 40.548 53.897,30.680 67.545,24.306 82.951 C 23.807 84.158,23.249 85.315,23.065 85.523 C 22.882 85.732,22.732 86.228,22.732 86.626 C 22.732 87.023,22.558 87.660,22.346 88.041 C 21.629 89.327,20.659 92.707,20.316 95.115 C 20.128 96.431,19.780 98.674,19.541 100.100 C 18.577 105.860,17.316 115.015,16.712 120.638 C 16.500 122.612,16.147 125.842,15.929 127.817 C 14.815 137.867,14.158 147.064,13.765 158.126 C 13.655 161.196,13.373 168.644,13.136 174.676 C 12.603 188.289,13.391 215.682,15.138 244.267 C 15.366 247.996,15.724 253.200,15.933 255.833 C 16.142 258.465,16.485 263.041,16.696 266.002 C 17.446 276.578,19.088 285.129,21.940 293.320 C 24.303 300.104,27.565 307.059,31.447 313.585 C 32.466 315.299,33.480 317.008,33.699 317.381 C 35.979 321.264,43.351 330.003,48.909 335.410 C 56.295 342.596,59.308 344.981,67.970 350.498 C 74.561 354.697,87.696 360.269,94.516 361.760 C 95.503 361.976,97.029 362.326,97.906 362.539 C 99.839 363.006,103.121 363.631,106.082 364.094 C 112.636 365.121,114.429 365.368,120.638 366.101 C 124.367 366.541,130.379 367.081,133.998 367.300 C 137.617 367.520,142.732 367.880,145.364 368.101 C 147.996 368.321,152.886 368.500,156.231 368.498 C 159.576 368.496,165.858 368.669,170.190 368.883 C 182.955 369.512,208.175 369.642,208.175 369.078 C 208.175 368.818,207.472 367.100,206.612 365.260 C 196.216 343.016,192.008 325.596,192.079 305.085 C 192.114 294.836,192.267 292.937,193.788 283.948 C 195.589 273.296,200.448 260.269,206.506 249.850 C 229.350 210.561,271.876 188.336,316.000 192.627 C 329.080 193.899,343.902 198.349,363.678 206.942 C 369.154 209.321,368.895 209.473,368.887 203.888 C 368.871 193.132,368.061 158.886,367.668 152.385 C 367.434 148.523,367.077 142.493,366.873 138.983 C 366.509 132.704,366.136 128.526,365.308 121.436 C 365.078 119.462,364.722 116.411,364.517 114.656 C 363.165 103.057,361.498 94.997,358.907 87.537 C 357.518 83.539,357.135 82.636,354.755 77.767 C 340.161 47.902,311.654 25.218,281.555 19.518 C 272.526 17.807,259.402 16.184,246.062 15.127 C 233.958 14.168,230.056 13.913,221.735 13.536 C 211.307 13.064,172.989 12.582,172.655 12.919 M222.084 102.494 C 251.642 102.761,264.667 103.009,265.032 103.313 C 265.679 103.850,267.875 110.352,268.633 113.975 C 269.308 117.202,269.362 123.304,268.739 125.917 C 268.016 128.950,266.833 132.834,265.957 135.051 L 265.147 137.102 262.484 137.389 C 259.002 137.765,124.071 137.769,119.610 137.394 L 116.190 137.106 114.943 133.657 C 110.625 121.708,110.731 115.459,115.410 106.168 C 117.210 102.595,114.457 102.953,143.170 102.553 C 177.489 102.076,175.846 102.077,222.084 102.494 M177.069 173.888 C 185.658 174.543,189.940 175.111,191.225 175.768 C 202.145 181.350,201.559 203.512,190.397 207.102 C 182.273 209.715,129.273 209.744,120.098 207.140 C 110.300 204.359,107.540 186.520,115.643 178.350 C 118.685 175.283,120.242 174.871,132.403 173.920 C 138.584 173.436,170.835 173.414,177.069 173.888 M300.499 226.981 C 254.660 229.652,219.772 273.483,226.904 319.442 C 232.060 352.672,258.860 379.874,292.522 386.045 C 299.925 387.402,313.855 387.718,316.650 386.592 C 316.979 386.459,318.325 386.201,319.641 386.018 C 346.013 382.350,368.441 363.889,381.174 335.371 C 388.062 319.944,388.303 298.553,381.791 280.558 C 381.236 279.023,380.676 277.408,380.548 276.969 C 380.420 276.530,379.203 273.928,377.843 271.186 C 363.470 242.195,333.487 225.059,300.499 226.981 M149.352 245.632 C 151.107 245.846,154.514 246.223,156.923 246.469 C 159.380 246.719,161.435 247.122,161.603 247.386 C 162.043 248.079,161.973 276.858,161.529 277.560 C 161.277 277.957,160.075 278.248,157.846 278.450 C 156.026 278.614,152.473 278.946,149.950 279.187 C 136.464 280.473,122.073 280.052,118.866 278.277 C 107.516 271.994,108.724 250.018,120.638 246.044 C 124.086 244.894,141.278 244.648,149.352 245.632 M307.618 250.838 C 317.706 251.738,317.257 251.527,317.591 255.535 C 317.733 257.234,318.029 260.239,318.251 262.213 C 318.785 266.980,319.446 277.132,319.711 284.632 C 319.963 291.781,319.576 291.221,325.309 292.730 C 327.675 293.353,330.957 294.230,332.602 294.680 C 334.247 295.130,337.478 295.976,339.781 296.560 C 345.204 297.937,345.481 298.180,345.162 301.279 C 345.026 302.604,344.683 306.884,344.401 310.788 C 344.118 314.693,343.726 318.045,343.529 318.239 C 341.149 320.572,307.485 320.651,300.930 318.339 C 294.691 316.139,290.157 298.448,291.480 281.474 C 292.300 270.945,295.146 255.500,297.104 250.947 C 297.567 249.871,296.874 249.878,307.618 250.838 "
            stroke="none"
            fill="#448c1c"
            fill-rule="evenodd"/>
    </g>
</svg>