<svg id="svg"
    xmlns="http://www.w3.org/2000/svg"
    width="400"
    height="400"
    viewBox="0, 0, 400,400"
    version="1.1">
    <g id="svgg">
        <path
            id="path0"
            d="M193.750 45.805 C 193.148 45.875,191.109 46.086,189.219 46.274 C 167.057 48.483,145.158 59.645,129.269 76.831 C 85.982 123.651,99.804 199.508,156.719 227.485 C 168.632 233.340,175.195 233.151,181.706 226.765 C 191.266 217.387,187.863 203.222,174.375 196.252 C 138.933 177.938,128.479 136.308,151.593 105.524 C 179.762 68.007,238.215 75.791,255.599 119.375 C 267.532 149.294,254.824 180.969,224.694 196.403 C 211.270 203.280,208.317 216.794,218.099 226.592 C 223.935 232.438,230.031 233.261,238.750 229.379 C 315.357 195.274,313.945 85.447,236.483 52.994 C 223.938 47.738,204.849 44.527,193.750 45.805 M195.511 105.021 C 170.850 108.433,156.964 134.828,167.982 157.351 C 181.582 185.153,222.569 181.971,233.229 152.285 C 241.933 128.044,220.771 101.525,195.511 105.021 M296.084 270.781 C 296.084 280.922,296.124 285.025,296.172 279.900 C 296.220 274.774,296.220 266.477,296.172 261.462 C 296.123 256.447,296.084 260.641,296.084 270.781 M85.391 267.411 C 85.863 267.483,86.637 267.483,87.109 267.411 C 87.582 267.340,87.195 267.281,86.250 267.281 C 85.305 267.281,84.918 267.340,85.391 267.411 M238.068 288.984 C 242.076 289.034,248.545 289.034,252.443 288.984 C 256.342 288.934,253.063 288.894,245.156 288.894 C 237.250 288.894,234.060 288.935,238.068 288.984 M296.071 313.906 C 296.072 317.859,296.117 319.433,296.171 317.404 C 296.226 315.375,296.225 312.141,296.171 310.217 C 296.116 308.293,296.071 309.953,296.071 313.906 M269.688 313.594 C 268.928 314.367,268.378 315.000,268.464 315.000 C 268.550 315.000,269.241 314.367,270.000 313.594 C 270.759 312.820,271.310 312.188,271.224 312.188 C 271.138 312.188,270.447 312.820,269.688 313.594 M190.391 342.090 C 190.691 342.169,191.184 342.169,191.484 342.090 C 191.785 342.012,191.539 341.948,190.938 341.948 C 190.336 341.948,190.090 342.012,190.391 342.090 "
            stroke="none"
            fill="#04ab14"
            fill-rule="evenodd"/>
        <path
            id="path1"
            d="M281.250 286.719 L 281.250 320.938 288.594 320.938 L 295.938 320.938 295.938 313.957 L 295.938 306.976 300.384 303.254 C 302.830 301.206,305.131 299.290,305.498 298.995 C 306.157 298.466,306.261 298.584,314.987 309.699 L 323.810 320.938 332.725 320.938 C 339.810 320.938,341.577 320.857,341.335 320.547 C 341.168 320.332,335.447 313.361,328.622 305.055 C 321.797 296.750,316.140 289.766,316.052 289.535 C 315.950 289.270,320.356 285.293,328.024 278.730 C 334.697 273.018,340.290 268.225,340.453 268.078 C 340.617 267.932,336.122 267.813,330.410 267.813 L 320.071 267.813 308.263 278.438 C 301.769 284.281,296.339 289.063,296.196 289.063 C 296.054 289.063,295.938 280.836,295.938 270.781 L 295.938 252.500 288.594 252.500 L 281.250 252.500 281.250 286.719 M240.781 266.763 C 231.341 268.250,224.253 272.863,219.887 280.357 C 214.350 289.863,215.302 304.417,222.015 312.882 C 232.254 325.794,257.242 326.303,269.451 313.849 L 271.245 312.018 266.735 307.517 L 262.226 303.015 260.254 304.718 C 255.108 309.160,252.152 310.511,246.863 310.837 C 238.284 311.366,231.590 307.347,230.741 301.157 L 230.540 299.688 252.145 299.688 L 273.750 299.688 273.750 296.945 C 273.750 281.680,266.253 271.001,253.146 267.596 C 250.201 266.830,243.301 266.366,240.781 266.763 M151.563 267.226 C 133.005 269.367,121.635 286.254,127.164 303.462 C 135.582 329.658,176.805 329.080,184.536 302.656 C 190.371 282.712,173.594 264.685,151.563 267.226 M80.000 267.985 C 53.359 273.698,50.322 310.712,75.671 320.735 C 84.730 324.317,96.692 323.011,102.606 317.794 L 104.119 316.460 104.013 320.036 C 103.754 328.727,98.207 333.151,88.076 332.744 C 81.963 332.499,78.521 330.973,73.934 326.475 C 72.746 325.310,71.663 324.396,71.527 324.444 C 71.392 324.492,68.958 326.415,66.118 328.718 L 60.956 332.904 62.271 334.475 C 73.930 348.400,99.774 349.875,111.566 337.289 C 117.967 330.456,118.125 329.436,118.125 294.977 L 118.125 268.438 110.938 268.438 L 103.750 268.438 103.750 271.157 L 103.750 273.877 102.578 272.756 C 98.039 268.414,87.945 266.282,80.000 267.985 M193.678 296.852 C 193.594 325.349,193.589 325.586,192.947 326.462 C 191.675 328.194,190.690 328.436,184.916 328.437 L 179.675 328.438 179.760 335.234 L 179.844 342.031 186.643 341.981 C 198.809 341.891,203.632 340.007,206.393 334.267 C 208.428 330.036,208.438 329.869,208.438 297.303 L 208.438 268.125 201.100 268.125 L 193.763 268.125 193.678 296.852 M251.094 279.357 C 255.454 280.883,258.363 283.997,259.212 288.047 L 259.425 289.063 245.146 289.063 L 230.868 289.063 231.084 287.913 C 232.441 280.675,242.532 276.361,251.094 279.357 M159.803 280.159 C 174.789 284.062,174.675 305.546,159.647 309.546 C 146.439 313.061,136.036 299.617,142.346 287.188 C 145.252 281.463,152.934 278.370,159.803 280.159 M92.226 280.449 C 96.521 281.360,100.316 284.062,102.212 287.559 L 103.281 289.531 103.281 294.844 C 103.281 304.930,98.954 309.201,88.750 309.184 C 79.548 309.169,74.218 305.003,73.077 296.931 C 71.554 286.168,80.970 278.064,92.226 280.449 "
            stroke="none"
            fill="#050505"
            fill-rule="evenodd"/>
    </g>
</svg>