<svg fill="none"
    height="40"
    viewBox="0 0 41 40"
    width="41"
    xmlns="http://www.w3.org/2000/svg">
    <path
        clip-rule="evenodd"
        d="M20.231 0C17.7063 0 16.2335 1.68314 15.8127 2.52471C12.4465 10.5196 5.58767 28.0243 5.08272 34.0836C4.57778 40.1428 9.92175 40.3953 12.6568 39.7641L20.231 35.9771L27.8051 39.7641C30.5402 40.3953 35.8842 40.1428 35.3792 34.0836C34.8743 28.0243 28.0155 10.5196 24.6492 2.52471C24.2284 1.68314 22.7557 0 20.231 0Z"
        fill="#0AAFD9"
        fill-rule="evenodd" />
    <path
        d="M34.3516 22.3243L31.3183 13.7302C31.1135 13.1497 31.4768 12.5244 32.0907 12.4785C34.6261 12.289 38.4699 12.7594 39.7642 15.7794C41.0846 18.8603 38.025 21.5257 35.6852 22.8558C35.1751 23.1457 34.5468 22.8776 34.3516 22.3243Z"
        fill="#0AAFD9" />
    <path
        d="M5.73145 22.3243L8.76466 13.7302C8.96955 13.1497 8.60619 12.5244 7.99228 12.4785C5.45694 12.289 1.61308 12.7594 0.318797 15.7794C-1.00162 18.8603 2.05801 21.5257 4.39782 22.8558C4.90788 23.1457 5.53618 22.8776 5.73145 22.3243Z"
        fill="#0AAFD9" />
    <path
        d="M15.5427 22.28C14.7427 22.28 14.2093 22.9467 14.0427 23.28C13.5427 28.28 17.5427 30.78 20.5427 30.78C23.5427 30.78 25.6591 27.314 26.0426 25.78C26.5426 23.78 26.5426 23.28 25.5426 22.28C24.5426 21.28 21.5427 23.28 20.0427 23.28C18.5427 23.28 16.5427 22.28 15.5427 22.28Z"
        fill="#00263E" />
    <mask
        style="mask-type:alpha"
        height="9"
        id="mask0_3_3406"
        maskUnits="userSpaceOnUse"
        width="13"
        x="14"
        y="22">
        <path
            d="M15.5427 22.28C14.7427 22.28 14.2093 22.9467 14.0427 23.28C13.5427 28.28 17.5427 30.78 20.5427 30.78C23.5427 30.78 25.6591 27.314 26.0426 25.78C26.5426 23.78 26.5426 23.28 25.5426 22.28C24.5426 21.28 21.5427 23.28 20.0427 23.28C18.5427 23.28 16.5427 22.28 15.5427 22.28Z"
            fill="#BDE1EC" />
    </mask>
    <g mask="url(#mask0_3_3406)">
        <path
            d="M15.5427 17.56C14.7427 17.56 14.2093 18.2267 14.0427 18.56C13.5427 23.56 17.5427 26.0601 20.5427 26.0601C23.5427 26.0601 25.6591 22.594 26.0426 21.0601C26.5426 19.0601 26.5426 18.56 25.5426 17.56C24.5426 16.56 21.5427 18.56 20.0427 18.56C18.5427 18.56 16.5427 17.56 15.5427 17.56Z"
            fill="#BDE1EC" />
    </g>
    <path
        d="M19 28.28C17.8 27.48 15.8333 27.6133 15 27.78L15 27.78C15.3333 28.28 15.8 28.98 17 29.78C18.2 30.58 20.1667 31.1134 21 30.78C20.6667 30.4467 20.2 29.08 19 28.28Z"
        fill="#405C70" />
    <path
        d="M14 11C14.4 10.4043 15.56 9.45125 17 10.4043"
        stroke="#00263E"
        stroke-linecap="round" />
    <path
        d="M26 11C25.6 10.4043 24.44 9.45125 23 10.4043"
        stroke="#00263E"
        stroke-linecap="round" />
    <path
        d="M19 16C19 18.2091 16.3137 20 13 20C9.68629 20 7 17.2091 7 15C7 12.7909 9.68629 12 13 12C16.3137 12 19 12.7931 19 16Z"
        fill="#00263E" />
    <path
        d="M12.5 12.5C7.68336 12.5 7 13.5 7 14.5C7 16 9.95862 20 13 20C16.5 20 19 18 19 15.5C19 13 18.5 12.5 12.5 12.5Z"
        stroke="#45D3E7"
        stroke-linecap="round" />
    <ellipse
        cx="10.5"
        cy="15"
        fill="#405C70"
        rx="1.5"
        ry="1" />
    <path
        d="M21 16C21 18.2091 23.6863 20 27 20C30.3137 20 33 17.2091 33 15C33 12.7909 30.3137 12 27 12C23.6863 12 21 12.7931 21 16Z"
        fill="#00263E" />
    <path
        d="M27.5 12.5C32.3166 12.5 33 13.5 33 14.5C33 16 30.0414 20 27 20C23.5 20 21 18 21 15.5C21 13 21.5 12.5 27.5 12.5Z"
        stroke="#45D3E7"
        stroke-linecap="round" />
    <ellipse
        fill="#405C70"
        rx="1.5"
        ry="1"
        transform="matrix(-1 0 0 1 29.5 15)" />
    <path
        d="M22.5 2.5C22.8333 2.83333 23.5 3.7 23.5 4.5"
        stroke="white"
        stroke-linecap="round"
        stroke-opacity="0.5" />
    <path
        d="M38 15C38.3333 15.3333 39 16.2 39 17"
        stroke="white"
        stroke-linecap="round"
        stroke-opacity="0.5" />
</svg>
