<svg id="svg"
    version="1.1"
    xmlns="http://www.w3.org/2000/svg"
    width="400"
    height="347.01492537313436"
    viewBox="0, 0, 400,347.01492537313436">
    <g id="svgg" transform="translate(10 -40) scale(1.15)">
        <path
            id="path0"
            d="M147.144 33.866 C 147.006 34.009,142.006 34.267,136.033 34.439 C 122.871 34.819,108.377 35.620,100.000 36.431 C 97.995 36.625,94.635 36.942,92.535 37.136 C 86.175 37.722,82.644 38.128,78.819 38.714 C 74.967 39.305,71.680 39.773,69.097 40.099 C 65.656 40.534,62.637 41.056,61.979 41.331 C 61.597 41.491,60.035 42.042,58.507 42.556 C 48.924 45.780,40.187 52.260,32.074 62.161 C 28.418 66.622,23.394 75.768,21.921 80.642 C 21.705 81.359,21.372 82.463,21.181 83.098 C 20.990 83.732,20.833 84.582,20.833 84.987 C 20.833 85.392,20.694 85.809,20.524 85.914 C 20.193 86.119,19.978 87.219,19.468 91.319 C 19.290 92.752,18.894 95.564,18.588 97.569 C 17.632 103.843,17.317 106.304,16.968 110.243 C 16.782 112.344,16.476 115.703,16.288 117.708 C 14.365 138.263,14.362 180.420,16.283 200.347 C 16.476 202.352,16.791 205.790,16.984 207.986 C 17.338 212.027,17.615 214.240,18.590 220.833 C 18.887 222.839,19.280 225.573,19.463 226.910 C 20.041 231.128,20.207 231.946,20.524 232.142 C 20.694 232.247,20.833 232.783,20.833 233.333 C 20.833 233.884,20.990 234.431,21.181 234.549 C 21.372 234.667,21.528 235.052,21.528 235.405 C 21.528 236.491,24.583 243.409,26.440 246.526 C 35.525 261.780,48.910 271.608,66.319 275.808 C 76.075 278.161,78.064 278.410,96.007 279.524 C 107.545 280.239,114.377 281.036,115.556 281.804 C 119.771 284.546,126.218 292.435,136.808 307.808 C 151.584 329.256,156.059 333.218,165.625 333.324 C 166.293 333.331,167.432 333.501,168.154 333.702 C 170.122 334.249,170.539 333.971,174.036 329.781 C 180.222 322.371,182.688 319.142,199.299 296.701 C 203.835 290.574,208.783 284.334,210.985 281.966 C 212.301 280.550,213.758 280.281,220.313 280.243 C 224.547 280.218,232.428 279.780,240.278 279.132 C 248.197 278.479,257.339 277.149,261.545 276.038 C 262.261 275.849,263.511 275.517,264.323 275.301 C 283.043 270.305,298.736 255.549,304.526 237.500 C 305.762 233.646,306.688 230.456,306.996 228.993 C 307.197 228.038,307.505 226.632,307.680 225.868 C 308.203 223.580,308.675 220.814,309.012 218.056 C 309.187 216.623,309.568 213.733,309.859 211.632 C 310.429 207.521,310.983 201.334,311.476 193.576 C 311.645 190.903,311.959 185.981,312.172 182.639 C 312.385 179.297,312.585 175.944,312.617 175.187 L 312.674 173.812 310.243 173.421 C 308.906 173.207,306.484 172.830,304.861 172.584 C 279.397 168.725,258.964 157.343,243.486 138.394 C 241.626 136.117,239.680 133.773,239.161 133.186 L 238.219 132.118 236.557 133.082 C 231.745 135.875,227.329 137.538,223.090 138.156 C 217.527 138.966,102.487 138.296,98.438 137.430 C 87.115 135.008,85.654 115.297,96.441 110.496 C 98.558 109.554,108.308 109.367,169.444 109.101 L 226.215 108.854 226.184 107.813 C 226.167 107.240,225.954 105.443,225.712 103.819 C 222.648 83.291,224.634 63.320,231.597 44.618 C 235.240 34.834,235.674 35.886,227.889 35.624 C 224.486 35.509,218.030 35.262,213.542 35.075 C 194.139 34.265,147.579 33.417,147.144 33.866 M180.556 169.374 C 186.864 170.027,187.487 170.220,189.130 172.030 C 196.283 179.914,194.203 193.825,185.350 197.303 C 180.692 199.133,102.258 198.905,96.666 197.045 C 91.055 195.178,87.206 186.049,89.285 179.539 C 91.854 171.495,94.129 169.868,103.472 169.390 C 106.623 169.228,109.436 169.036,109.722 168.961 C 110.981 168.635,177.142 169.020,180.556 169.374 "
            stroke="none"
            fill="#448c1c"
            fill-rule="evenodd"/>
    </g>
</svg>