<svg id="svg"
    version="1.1"
    xmlns="http://www.w3.org/2000/svg"
    width="400"
    height="400"
    viewBox="0, 0, 400,400">

    <g id="svgg" transform="translate(10 10) scale(0.95)">
        <path
            id="path1"
            d="M194.000 16.384 C 193.450 16.569,192.293 16.738,191.428 16.760 C 190.564 16.782,189.259 16.980,188.528 17.200 C 187.798 17.420,186.525 17.793,185.700 18.029 C 177.593 20.348,169.281 26.816,147.000 48.142 C 138.079 56.681,133.862 60.880,97.400 97.537 C 86.180 108.817,75.650 119.323,74.000 120.884 C 72.350 122.445,69.380 125.275,67.400 127.173 C 65.420 129.072,60.830 133.318,57.200 136.610 C 40.143 152.077,25.468 167.471,17.854 177.883 L 15.161 181.566 14.336 189.283 C 12.806 203.587,13.208 228.911,15.243 246.400 C 15.461 248.270,15.821 251.960,16.043 254.600 C 17.190 268.218,17.284 269.272,18.397 281.000 C 18.627 283.420,18.983 287.290,19.189 289.600 C 19.810 296.555,20.771 303.854,21.402 306.400 C 21.538 306.950,21.839 308.210,22.072 309.200 C 25.214 322.594,33.500 338.247,42.575 347.934 C 43.469 348.888,44.326 349.891,44.480 350.162 C 45.030 351.134,55.850 360.772,58.400 362.562 C 68.184 369.428,77.550 374.032,87.400 376.816 C 93.846 378.637,95.985 379.004,110.600 380.793 C 112.140 380.982,114.840 381.330,116.600 381.568 C 118.360 381.806,121.240 382.173,123.000 382.385 C 124.760 382.597,128.180 383.049,130.600 383.390 C 138.493 384.504,141.353 384.854,144.359 385.075 L 147.318 385.293 147.069 380.947 C 146.799 376.229,146.261 370.272,145.593 364.600 C 145.359 362.620,144.986 359.290,144.764 357.200 C 144.541 355.110,144.180 351.780,143.962 349.800 C 139.426 308.708,144.395 281.349,158.699 268.646 C 171.458 257.316,186.817 254.773,218.160 258.800 C 235.919 261.081,249.267 277.427,251.805 300.000 C 252.139 302.970,252.594 306.480,252.815 307.800 C 254.008 314.913,254.190 331.789,253.180 341.600 C 252.395 349.230,251.926 353.461,251.561 356.200 C 250.664 362.922,249.201 378.885,249.200 381.945 L 249.200 385.290 251.900 385.079 C 253.385 384.963,255.950 384.666,257.600 384.418 C 261.822 383.783,269.189 382.829,273.200 382.398 C 275.070 382.197,278.130 381.837,280.000 381.599 C 281.870 381.361,285.020 380.991,287.000 380.776 C 288.980 380.562,291.590 380.216,292.800 380.007 C 294.010 379.799,296.080 379.444,297.400 379.218 C 299.630 378.837,300.860 378.590,305.300 377.634 C 311.203 376.363,315.866 374.833,321.600 372.288 C 322.590 371.848,323.986 371.241,324.702 370.938 C 327.161 369.898,337.800 362.922,341.600 359.856 C 348.459 354.324,362.400 338.783,362.400 336.669 C 362.400 336.566,363.152 335.248,364.070 333.741 C 365.835 330.845,370.290 321.438,371.337 318.400 C 371.677 317.410,372.347 315.520,372.826 314.200 C 374.453 309.707,376.228 301.271,376.841 295.113 C 377.066 292.851,377.420 289.290,377.627 287.200 C 377.834 285.110,378.190 281.690,378.417 279.600 C 378.965 274.554,379.296 270.731,380.821 251.800 C 382.462 231.421,383.713 191.688,382.807 188.669 C 378.901 175.649,371.125 165.959,350.167 148.001 C 347.985 146.132,326.490 124.979,302.400 100.994 C 278.310 77.010,253.209 52.259,246.621 45.993 C 240.032 39.727,232.742 32.704,230.421 30.386 C 223.535 23.510,213.923 17.600,209.627 17.600 C 209.040 17.600,208.389 17.437,208.180 17.239 C 207.359 16.458,195.841 15.764,194.000 16.384 "
            stroke="none"
            fill="#448c1c"
            fill-rule="evenodd"/>
    </g>
</svg>