<svg id="svg"
    version="1.1"
    xmlns="http://www.w3.org/2000/svg"
    width="400"
    height="400"
    viewBox="0, 0, 400,400">
    <g id="svgg" transform="translate(0 0) scale(1)">
        <path
            id="path1"
            d="M196.200 21.199 C 195.760 21.389,194.320 21.847,193.000 22.218 C 188.507 23.480,174.629 29.960,171.205 32.395 C 167.987 34.684,155.942 40.082,153.317 40.412 C 151.813 40.601,150.298 40.864,149.951 40.997 C 149.604 41.130,143.578 41.408,136.560 41.614 C 123.087 42.009,117.359 42.438,114.898 43.235 C 104.802 46.507,102.057 49.405,88.788 70.800 C 81.711 82.211,79.106 84.827,68.000 91.678 C 39.775 109.089,39.579 109.410,38.232 140.257 C 37.579 155.208,37.220 158.206,35.649 161.800 C 34.168 165.190,30.312 172.690,27.630 177.400 C 25.371 181.366,20.800 190.470,20.800 191.002 C 20.800 191.154,20.548 191.846,20.241 192.540 C 19.643 193.886,18.727 196.742,18.016 199.481 C 17.103 202.994,20.405 212.104,26.854 223.869 C 37.401 243.110,37.366 243.001,37.982 258.000 C 39.401 292.575,40.448 294.609,64.000 308.585 C 78.798 317.366,81.392 319.921,90.413 334.600 C 100.834 351.559,105.819 356.774,113.819 359.087 C 119.925 360.853,120.473 360.908,135.000 361.224 C 152.441 361.604,154.267 361.851,160.309 364.652 C 161.909 365.393,163.277 366.000,163.349 366.000 C 163.495 366.000,170.015 369.525,172.800 371.111 C 178.295 374.238,189.003 379.366,192.346 380.470 C 199.991 382.997,204.672 381.691,221.128 372.440 C 239.129 362.322,240.887 361.846,262.600 361.221 C 289.168 360.456,290.273 359.727,308.415 331.000 C 310.747 327.308,315.034 321.290,316.351 319.862 C 318.441 317.594,327.869 311.121,334.175 307.625 C 347.075 300.473,354.603 292.619,356.435 284.400 C 356.606 283.630,356.936 282.280,357.168 281.400 C 357.399 280.520,357.763 273.049,357.976 264.798 C 358.509 244.171,358.750 243.244,367.733 227.200 C 371.247 220.924,375.500 212.578,375.989 211.000 C 376.193 210.340,376.836 208.450,377.418 206.800 C 379.062 202.136,378.870 199.837,376.230 192.533 C 375.459 190.402,371.430 182.114,368.775 177.200 C 364.530 169.342,360.000 160.321,360.000 159.726 C 360.000 159.387,359.642 157.628,359.204 155.818 C 358.540 153.069,358.340 150.127,357.990 137.963 C 357.759 129.953,357.389 122.590,357.167 121.600 C 356.254 117.527,356.095 116.920,355.476 115.130 C 353.304 108.847,348.742 104.491,335.649 96.200 C 314.753 82.968,315.977 84.156,304.970 66.400 C 290.836 43.599,288.594 42.363,260.000 41.603 C 246.786 41.252,241.984 40.695,238.388 39.093 C 234.039 37.157,228.940 34.599,226.024 32.892 C 218.482 28.476,208.614 23.725,204.200 22.385 C 203.320 22.117,201.874 21.652,200.987 21.349 C 199.186 20.736,197.403 20.680,196.200 21.199 M258.150 127.198 C 260.603 128.377,264.277 131.748,267.169 135.474 C 272.109 141.838,275.211 146.353,275.445 147.523 C 275.746 149.029,276.591 148.145,232.523 192.395 C 215.541 209.448,194.548 230.600,185.872 239.400 C 155.308 270.402,150.216 273.937,140.355 270.999 C 133.968 269.096,127.448 258.382,128.736 251.906 C 130.080 245.148,134.010 240.005,149.926 224.172 C 156.767 217.368,167.637 206.494,174.082 200.009 C 203.078 170.834,221.829 152.177,226.970 147.388 C 230.033 144.535,234.267 140.580,236.379 138.600 C 249.911 125.915,249.869 125.945,253.800 126.140 C 255.285 126.214,256.943 126.617,258.150 127.198 M155.543 131.408 C 161.009 133.136,162.225 136.269,162.138 148.398 L 162.077 156.996 159.661 159.267 C 155.096 163.558,151.772 164.637,141.400 165.196 C 137.440 165.409,133.267 165.688,132.126 165.817 C 128.540 166.222,128.523 166.137,128.147 145.792 C 127.855 130.022,127.552 131.162,132.160 130.740 C 137.775 130.227,153.201 130.667,155.543 131.408 M266.714 237.700 C 267.796 239.014,269.218 270.151,268.258 271.500 C 267.823 272.111,258.145 272.180,251.200 271.622 C 232.073 270.085,233.703 270.602,234.183 266.223 C 234.305 265.111,234.689 258.894,235.037 252.409 C 235.384 245.925,235.832 240.314,236.031 239.942 C 236.565 238.943,240.362 238.521,256.800 237.631 C 265.631 237.153,266.267 237.157,266.714 237.700 "
            stroke="none"
            fill="#448c1c"
            fill-rule="evenodd"/>
    </g>
</svg>