<svg width="18"
    height="17"
    viewBox="0 0 18 17"
    fill="none"
    xmlns="http://www.w3.org/2000/svg">
    <path
        d="M17.553 15.3289L14.2559 12.4842C15.3492 10.9082 15.7971 8.97318 15.5075 7.07705C15.2179 5.18091 14.2128 3.4678 12.6989 2.28995C11.185 1.11211 9.2774 0.559062 7.36826 0.744533C5.45913 0.930003 3.69361 1.83989 2.43474 3.28711C1.17587 4.73432 0.519333 6.60886 0.600122 8.52528C0.680912 10.4417 1.49289 12.2543 2.8691 13.5905C4.2453 14.9266 6.08114 15.6847 7.99911 15.7088C9.91708 15.7329 11.7714 15.0213 13.1808 13.7202L16.453 16.5666C16.5357 16.6391 16.6319 16.6945 16.7362 16.7297C16.8404 16.7648 16.9506 16.779 17.0603 16.7714C17.1701 16.7637 17.2772 16.7344 17.3756 16.6852C17.474 16.6359 17.5616 16.5677 17.6335 16.4844C17.7725 16.3189 17.8418 16.106 17.8268 15.8904C17.8118 15.6748 17.7137 15.4734 17.553 15.3289ZM8.51707 14.0448C7.36613 14.1249 6.21728 13.8619 5.21581 13.2891C4.21433 12.7163 3.40521 11.8594 2.89075 10.8267C2.3763 9.794 2.17962 8.63197 2.32559 7.48751C2.47156 6.34306 2.95363 5.26759 3.71082 4.39711C4.46801 3.52663 5.46633 2.90023 6.57953 2.59713C7.69273 2.29402 8.8708 2.32783 9.96479 2.69427C11.0588 3.0607 12.0195 3.74332 12.7256 4.65578C13.4316 5.56825 13.8512 6.66959 13.9313 7.82053C14.0387 9.36389 13.5286 10.8867 12.5133 12.054C11.4979 13.2213 10.0604 13.9374 8.51707 14.0448Z"
        fill="#1C1C1C" />
</svg>
